<svg width="560" height="400" viewBox="0 0 560 400" fill="none" xmlns="http://www.w3.org/2000/svg">
<rect width="560" height="400" rx="16" fill="white"/>
<rect x="230" y="166" width="100" height="100" rx="50" fill="#E5EBFF"/>
<path d="M256.161 210.156C255.322 210.151 254.559 209.966 253.872 209.602C253.184 209.237 252.632 208.641 252.216 207.812C251.799 206.984 251.591 205.914 251.591 204.602C251.591 203.346 251.783 202.263 252.169 201.352C252.554 200.435 253.096 199.737 253.794 199.258C254.492 198.773 255.309 198.531 256.247 198.531C256.986 198.531 257.651 198.674 258.239 198.961C258.833 199.247 259.307 199.643 259.661 200.148C260.02 200.648 260.239 201.208 260.317 201.828H257.997C257.934 201.562 257.822 201.333 257.661 201.141C257.505 200.943 257.304 200.794 257.059 200.695C256.82 200.596 256.549 200.547 256.247 200.547C255.736 200.547 255.307 200.693 254.958 200.984C254.614 201.271 254.351 201.685 254.169 202.227C253.992 202.763 253.901 203.404 253.895 204.148H253.989C254.166 203.82 254.401 203.536 254.692 203.297C254.989 203.052 255.325 202.867 255.7 202.742C256.075 202.617 256.471 202.555 256.888 202.555C257.559 202.555 258.164 202.714 258.7 203.031C259.242 203.344 259.666 203.779 259.973 204.336C260.281 204.888 260.434 205.513 260.434 206.211C260.434 206.977 260.255 207.659 259.895 208.258C259.541 208.852 259.039 209.318 258.388 209.656C257.742 209.99 256.999 210.156 256.161 210.156ZM256.145 208.305C256.526 208.305 256.869 208.216 257.177 208.039C257.484 207.857 257.723 207.612 257.895 207.305C258.067 206.997 258.153 206.656 258.153 206.281C258.153 205.906 258.07 205.565 257.903 205.258C257.736 204.951 257.497 204.711 257.184 204.539C256.877 204.362 256.536 204.273 256.161 204.273C255.786 204.273 255.445 204.362 255.138 204.539C254.83 204.716 254.585 204.961 254.403 205.273C254.221 205.581 254.13 205.919 254.13 206.289C254.13 206.654 254.218 206.99 254.395 207.297C254.572 207.604 254.812 207.849 255.114 208.031C255.421 208.214 255.765 208.305 256.145 208.305ZM262.925 211.703H260.941L264.581 198.156H266.581L262.925 211.703ZM272.095 210H269.736V200.922H269.673L267.088 202.562V200.469L269.884 198.688H272.095V210ZM278.719 210.156C277.776 210.156 276.964 209.93 276.281 209.477C275.604 209.018 275.083 208.354 274.719 207.484C274.359 206.615 274.18 205.568 274.18 204.344C274.18 203.125 274.359 202.081 274.719 201.211C275.083 200.336 275.604 199.672 276.281 199.219C276.964 198.76 277.776 198.531 278.719 198.531C279.656 198.531 280.466 198.76 281.148 199.219C281.831 199.672 282.354 200.336 282.719 201.211C283.083 202.081 283.266 203.125 283.266 204.344C283.266 205.573 283.083 206.622 282.719 207.492C282.359 208.362 281.839 209.023 281.156 209.477C280.474 209.93 279.661 210.156 278.719 210.156ZM278.719 208.219C279.161 208.219 279.544 208.076 279.867 207.789C280.195 207.503 280.443 207.07 280.609 206.492C280.781 205.914 280.865 205.198 280.859 204.344C280.859 203.5 280.773 202.789 280.602 202.211C280.43 201.628 280.182 201.19 279.859 200.898C279.536 200.607 279.156 200.461 278.719 200.461C278.276 200.461 277.896 200.607 277.578 200.898C277.26 201.19 277.013 201.628 276.836 202.211C276.659 202.789 276.57 203.5 276.57 204.344C276.57 205.198 276.659 205.914 276.836 206.492C277.013 207.07 277.258 207.503 277.57 207.789C277.888 208.076 278.271 208.219 278.719 208.219ZM284.842 205.688C284.847 204.266 285.056 202.938 285.467 201.703C285.884 200.464 286.48 199.297 287.256 198.203H289.459C289.09 198.74 288.735 199.419 288.397 200.242C288.058 201.065 287.782 201.956 287.569 202.914C287.36 203.872 287.256 204.797 287.256 205.688C287.256 206.578 287.36 207.503 287.569 208.461C287.782 209.414 288.058 210.305 288.397 211.133C288.735 211.961 289.09 212.646 289.459 213.188H287.256C286.48 212.089 285.884 210.922 285.467 209.688C285.056 208.448 284.847 207.115 284.842 205.688ZM300.544 199.461H291.45V197.867H300.544V199.461ZM302.864 204.57H289.864V202.969H302.864V204.57ZM301.325 199.008C301.325 199.831 301.299 200.565 301.247 201.211C301.2 201.857 301.08 202.591 300.888 203.414L298.888 203.359C299.023 202.812 299.122 202.294 299.184 201.805C299.252 201.31 299.294 200.872 299.309 200.492C299.325 200.112 299.335 199.656 299.341 199.125V199.008V197.867H301.325V199.008ZM301.278 211.281H291.388V206.086H301.278V211.281ZM293.356 209.68H299.294V207.633H293.356V209.68ZM307.23 201.703C307.646 202.938 307.857 204.266 307.862 205.688C307.857 207.115 307.646 208.448 307.23 209.688C306.818 210.922 306.224 212.089 305.448 213.188H303.245C303.615 212.646 303.969 211.961 304.308 211.133C304.646 210.305 304.92 209.414 305.128 208.461C305.342 207.503 305.448 206.578 305.448 205.688C305.448 204.797 305.342 203.872 305.128 202.914C304.92 201.956 304.646 201.065 304.308 200.242C303.969 199.419 303.615 198.74 303.245 198.203H305.448C306.224 199.297 306.818 200.464 307.23 201.703Z" fill="#294DCC"/>
<path d="M260.777 232.625H259.323V229.211H260.777V232.625ZM260.058 222.172C261.047 222.172 261.935 222.328 262.722 222.641C263.508 222.948 264.12 223.385 264.558 223.953C265.001 224.516 265.222 225.164 265.222 225.898C265.222 226.643 265.001 227.297 264.558 227.859C264.12 228.422 263.508 228.859 262.722 229.172C261.935 229.479 261.047 229.633 260.058 229.633C259.063 229.633 258.175 229.479 257.394 229.172C256.618 228.859 256.006 228.422 255.558 227.859C255.11 227.297 254.886 226.643 254.886 225.898C254.886 225.164 255.11 224.516 255.558 223.953C256.006 223.385 256.618 222.948 257.394 222.641C258.175 222.328 259.063 222.172 260.058 222.172ZM260.058 223.375C259.339 223.375 258.696 223.479 258.128 223.688C257.566 223.896 257.126 224.193 256.808 224.578C256.495 224.958 256.339 225.398 256.339 225.898C256.339 226.409 256.495 226.857 256.808 227.242C257.126 227.622 257.566 227.919 258.128 228.133C258.691 228.341 259.334 228.445 260.058 228.445C260.782 228.445 261.422 228.341 261.98 228.133C262.542 227.919 262.982 227.622 263.3 227.242C263.618 226.857 263.777 226.409 263.777 225.898C263.777 225.398 263.618 224.958 263.3 224.578C262.982 224.193 262.542 223.896 261.98 223.688C261.417 223.479 260.777 223.375 260.058 223.375ZM266.487 233.578H253.675V232.352H266.487V233.578ZM278.111 226.344H274.611V225.125H278.111V226.344ZM278.775 231.594H277.291V221.336H278.775V231.594ZM279.15 235.047H269.681V233.82H279.15V235.047ZM271.173 234.469H269.681V230.672H271.173V234.469ZM271.83 224.164C271.83 225.023 271.671 225.833 271.353 226.594C271.035 227.349 270.58 228.013 269.986 228.586C269.392 229.154 268.694 229.583 267.892 229.875L267.119 228.672C267.822 228.432 268.436 228.083 268.962 227.625C269.494 227.161 269.9 226.63 270.181 226.031C270.468 225.432 270.611 224.81 270.611 224.164V223.094H271.83V224.164ZM272.111 224.172C272.111 224.76 272.249 225.333 272.525 225.891C272.801 226.443 273.192 226.938 273.697 227.375C274.202 227.812 274.798 228.146 275.486 228.375L274.728 229.555C273.947 229.284 273.267 228.878 272.689 228.336C272.116 227.789 271.673 227.159 271.361 226.445C271.054 225.732 270.903 224.974 270.908 224.172V223.094H272.111V224.172ZM275.127 223.617H267.564V222.406H275.127V223.617ZM288.467 234.156C287.66 234.156 286.941 234.021 286.311 233.75C285.681 233.474 285.189 233.096 284.834 232.617C284.485 232.133 284.311 231.589 284.311 230.984C284.311 230.51 284.415 230.068 284.623 229.656C284.832 229.245 285.116 228.906 285.475 228.641C285.834 228.375 286.233 228.208 286.67 228.141V228.07C286.29 227.987 285.954 227.826 285.662 227.586C285.376 227.341 285.149 227.042 284.983 226.688C284.821 226.333 284.741 225.953 284.741 225.547C284.741 224.974 284.902 224.458 285.225 224C285.548 223.542 285.991 223.182 286.553 222.922C287.121 222.661 287.759 222.531 288.467 222.531C289.17 222.531 289.806 222.661 290.373 222.922C290.941 223.182 291.386 223.542 291.709 224C292.032 224.458 292.196 224.974 292.202 225.547C292.196 225.953 292.11 226.333 291.944 226.688C291.777 227.042 291.548 227.341 291.256 227.586C290.965 227.826 290.631 227.987 290.256 228.07V228.141C290.694 228.208 291.092 228.375 291.452 228.641C291.811 228.906 292.095 229.245 292.303 229.656C292.517 230.068 292.626 230.51 292.631 230.984C292.626 231.589 292.446 232.133 292.092 232.617C291.738 233.096 291.243 233.474 290.608 233.75C289.978 234.021 289.264 234.156 288.467 234.156ZM288.467 232.734C288.952 232.734 289.376 232.654 289.741 232.492C290.105 232.331 290.386 232.112 290.584 231.836C290.782 231.555 290.881 231.229 290.881 230.859C290.881 230.474 290.777 230.128 290.569 229.82C290.36 229.513 290.071 229.273 289.702 229.102C289.337 228.924 288.926 228.836 288.467 228.836C288.009 228.836 287.597 228.924 287.233 229.102C286.868 229.273 286.582 229.513 286.373 229.82C286.165 230.128 286.064 230.474 286.069 230.859C286.064 231.229 286.157 231.555 286.35 231.836C286.548 232.112 286.827 232.331 287.186 232.492C287.551 232.654 287.978 232.734 288.467 232.734ZM288.467 227.492C288.858 227.492 289.209 227.414 289.522 227.258C289.84 227.102 290.084 226.891 290.256 226.625C290.428 226.354 290.514 226.047 290.514 225.703C290.514 225.354 290.428 225.047 290.256 224.781C290.09 224.51 289.85 224.302 289.537 224.156C289.225 224.01 288.868 223.938 288.467 223.938C288.061 223.938 287.704 224.01 287.397 224.156C287.09 224.302 286.847 224.51 286.67 224.781C286.498 225.047 286.412 225.354 286.412 225.703C286.412 226.047 286.501 226.354 286.678 226.625C286.86 226.891 287.105 227.102 287.412 227.258C287.72 227.414 288.071 227.492 288.467 227.492ZM298.403 224.883C298.403 225.987 298.234 227.042 297.895 228.047C297.557 229.052 297.08 229.94 296.466 230.711C295.851 231.482 295.143 232.065 294.341 232.461L293.411 231.219C294.14 230.896 294.789 230.406 295.356 229.75C295.929 229.094 296.374 228.341 296.692 227.492C297.01 226.643 297.171 225.773 297.177 224.883V222.484H298.403V224.883ZM298.669 224.883C298.664 225.732 298.82 226.562 299.138 227.375C299.455 228.188 299.895 228.914 300.458 229.555C301.02 230.19 301.658 230.664 302.372 230.977L301.481 232.156C300.684 231.776 299.979 231.219 299.364 230.484C298.755 229.745 298.278 228.893 297.934 227.93C297.596 226.961 297.429 225.945 297.434 224.883V222.484H298.669V224.883ZM305.13 235.359H303.638V221.32H305.13V235.359Z" fill="#294DCC"/>
<rect x="391" y="55" width="100" height="100" rx="50" fill="#E5EBFF"/>
<path d="M417.161 99.1562C416.322 99.151 415.559 98.9661 414.872 98.6016C414.184 98.237 413.632 97.6406 413.216 96.8125C412.799 95.9844 412.591 94.9141 412.591 93.6016C412.591 92.3464 412.783 91.263 413.169 90.3516C413.554 89.4349 414.096 88.737 414.794 88.2578C415.492 87.7734 416.309 87.5312 417.247 87.5312C417.986 87.5312 418.651 87.6745 419.239 87.9609C419.833 88.2474 420.307 88.6432 420.661 89.1484C421.02 89.6484 421.239 90.2083 421.317 90.8281H418.997C418.934 90.5625 418.822 90.3333 418.661 90.1406C418.505 89.9427 418.304 89.7943 418.059 89.6953C417.82 89.5964 417.549 89.5469 417.247 89.5469C416.736 89.5469 416.307 89.6927 415.958 89.9844C415.614 90.2708 415.351 90.6849 415.169 91.2266C414.992 91.763 414.901 92.4036 414.895 93.1484H414.989C415.166 92.8203 415.401 92.5365 415.692 92.2969C415.989 92.0521 416.325 91.8672 416.7 91.7422C417.075 91.6172 417.471 91.5547 417.888 91.5547C418.559 91.5547 419.164 91.7135 419.7 92.0312C420.242 92.3438 420.666 92.7786 420.973 93.3359C421.281 93.888 421.434 94.513 421.434 95.2109C421.434 95.9766 421.255 96.6589 420.895 97.2578C420.541 97.8516 420.039 98.3177 419.388 98.6562C418.742 98.9896 417.999 99.1562 417.161 99.1562ZM417.145 97.3047C417.526 97.3047 417.869 97.2161 418.177 97.0391C418.484 96.8568 418.723 96.612 418.895 96.3047C419.067 95.9974 419.153 95.6562 419.153 95.2812C419.153 94.9062 419.07 94.5651 418.903 94.2578C418.736 93.9505 418.497 93.7109 418.184 93.5391C417.877 93.362 417.536 93.2734 417.161 93.2734C416.786 93.2734 416.445 93.362 416.138 93.5391C415.83 93.7161 415.585 93.9609 415.403 94.2734C415.221 94.5807 415.13 94.9193 415.13 95.2891C415.13 95.6536 415.218 95.9896 415.395 96.2969C415.572 96.6042 415.812 96.849 416.114 97.0312C416.421 97.2135 416.765 97.3047 417.145 97.3047ZM423.925 100.703H421.941L425.581 87.1562H427.581L423.925 100.703ZM433.095 99H430.736V89.9219H430.673L428.088 91.5625V89.4688L430.884 87.6875H433.095V99ZM439.719 99.1562C438.776 99.1562 437.964 98.9297 437.281 98.4766C436.604 98.0182 436.083 97.3542 435.719 96.4844C435.359 95.6146 435.18 94.5677 435.18 93.3438C435.18 92.125 435.359 91.0807 435.719 90.2109C436.083 89.3359 436.604 88.6719 437.281 88.2188C437.964 87.7604 438.776 87.5312 439.719 87.5312C440.656 87.5312 441.466 87.7604 442.148 88.2188C442.831 88.6719 443.354 89.3359 443.719 90.2109C444.083 91.0807 444.266 92.125 444.266 93.3438C444.266 94.5729 444.083 95.6224 443.719 96.4922C443.359 97.362 442.839 98.0234 442.156 98.4766C441.474 98.9297 440.661 99.1562 439.719 99.1562ZM439.719 97.2188C440.161 97.2188 440.544 97.0755 440.867 96.7891C441.195 96.5026 441.443 96.0703 441.609 95.4922C441.781 94.9141 441.865 94.1979 441.859 93.3438C441.859 92.5 441.773 91.7891 441.602 91.2109C441.43 90.6276 441.182 90.1901 440.859 89.8984C440.536 89.6068 440.156 89.4609 439.719 89.4609C439.276 89.4609 438.896 89.6068 438.578 89.8984C438.26 90.1901 438.013 90.6276 437.836 91.2109C437.659 91.7891 437.57 92.5 437.57 93.3438C437.57 94.1979 437.659 94.9141 437.836 95.4922C438.013 96.0703 438.258 96.5026 438.57 96.7891C438.888 97.0755 439.271 97.2188 439.719 97.2188ZM445.842 94.6875C445.847 93.2656 446.056 91.9375 446.467 90.7031C446.884 89.4635 447.48 88.2969 448.256 87.2031H450.459C450.09 87.7396 449.735 88.4193 449.397 89.2422C449.058 90.0651 448.782 90.9557 448.569 91.9141C448.36 92.8724 448.256 93.7969 448.256 94.6875C448.256 95.5781 448.36 96.5026 448.569 97.4609C448.782 98.4141 449.058 99.3047 449.397 100.133C449.735 100.961 450.09 101.646 450.459 102.188H448.256C447.48 101.089 446.884 99.9219 446.467 98.6875C446.056 97.4479 445.847 96.1146 445.842 94.6875ZM461.544 88.4609H452.45V86.8672H461.544V88.4609ZM463.864 93.5703H450.864V91.9688H463.864V93.5703ZM462.325 88.0078C462.325 88.8307 462.299 89.5651 462.247 90.2109C462.2 90.8568 462.08 91.5911 461.888 92.4141L459.888 92.3594C460.023 91.8125 460.122 91.2943 460.184 90.8047C460.252 90.3099 460.294 89.8724 460.309 89.4922C460.325 89.112 460.335 88.6562 460.341 88.125V88.0078V86.8672H462.325V88.0078ZM462.278 100.281H452.388V95.0859H462.278V100.281ZM454.356 98.6797H460.294V96.6328H454.356V98.6797ZM468.23 90.7031C468.646 91.9375 468.857 93.2656 468.862 94.6875C468.857 96.1146 468.646 97.4479 468.23 98.6875C467.818 99.9219 467.224 101.089 466.448 102.188H464.245C464.615 101.646 464.969 100.961 465.308 100.133C465.646 99.3047 465.92 98.4141 466.128 97.4609C466.342 96.5026 466.448 95.5781 466.448 94.6875C466.448 93.7969 466.342 92.8724 466.128 91.9141C465.92 90.9557 465.646 90.0651 465.308 89.2422C464.969 88.4193 464.615 87.7396 464.245 87.2031H466.448C467.224 88.2969 467.818 89.4635 468.23 90.7031Z" fill="#294DCC"/>
<path d="M418.398 121.625H416.945V118.211H418.398V121.625ZM417.68 111.172C418.669 111.172 419.557 111.328 420.344 111.641C421.13 111.948 421.742 112.385 422.18 112.953C422.622 113.516 422.844 114.164 422.844 114.898C422.844 115.643 422.622 116.297 422.18 116.859C421.742 117.422 421.13 117.859 420.344 118.172C419.557 118.479 418.669 118.633 417.68 118.633C416.685 118.633 415.797 118.479 415.016 118.172C414.24 117.859 413.628 117.422 413.18 116.859C412.732 116.297 412.508 115.643 412.508 114.898C412.508 114.164 412.732 113.516 413.18 112.953C413.628 112.385 414.24 111.948 415.016 111.641C415.797 111.328 416.685 111.172 417.68 111.172ZM417.68 112.375C416.961 112.375 416.318 112.479 415.75 112.688C415.188 112.896 414.747 113.193 414.43 113.578C414.117 113.958 413.961 114.398 413.961 114.898C413.961 115.409 414.117 115.857 414.43 116.242C414.747 116.622 415.188 116.919 415.75 117.133C416.312 117.341 416.956 117.445 417.68 117.445C418.404 117.445 419.044 117.341 419.602 117.133C420.164 116.919 420.604 116.622 420.922 116.242C421.24 115.857 421.398 115.409 421.398 114.898C421.398 114.398 421.24 113.958 420.922 113.578C420.604 113.193 420.164 112.896 419.602 112.688C419.039 112.479 418.398 112.375 417.68 112.375ZM424.109 122.578H411.297V121.352H424.109V122.578ZM435.733 115.344H432.233V114.125H435.733V115.344ZM436.397 120.594H434.913V110.336H436.397V120.594ZM436.772 124.047H427.303V122.82H436.772V124.047ZM428.795 123.469H427.303V119.672H428.795V123.469ZM429.452 113.164C429.452 114.023 429.293 114.833 428.975 115.594C428.657 116.349 428.202 117.013 427.608 117.586C427.014 118.154 426.316 118.583 425.514 118.875L424.741 117.672C425.444 117.432 426.058 117.083 426.584 116.625C427.116 116.161 427.522 115.63 427.803 115.031C428.09 114.432 428.233 113.81 428.233 113.164V112.094H429.452V113.164ZM429.733 113.172C429.733 113.76 429.871 114.333 430.147 114.891C430.423 115.443 430.814 115.938 431.319 116.375C431.824 116.812 432.42 117.146 433.108 117.375L432.35 118.555C431.569 118.284 430.889 117.878 430.311 117.336C429.738 116.789 429.295 116.159 428.983 115.445C428.676 114.732 428.524 113.974 428.53 113.172V112.094H429.733V113.172ZM432.748 112.617H425.186V111.406H432.748V112.617ZM446.441 123H444.706V113.414H444.644L441.948 115.18V113.531L444.753 111.688H446.441V123ZM452.853 123.156C451.983 123.156 451.239 122.93 450.619 122.477C449.999 122.023 449.525 121.362 449.197 120.492C448.869 119.622 448.705 118.573 448.705 117.344C448.705 116.13 448.869 115.089 449.197 114.219C449.525 113.344 449.999 112.677 450.619 112.219C451.244 111.76 451.989 111.531 452.853 111.531C453.713 111.531 454.455 111.76 455.08 112.219C455.705 112.677 456.181 113.344 456.509 114.219C456.838 115.089 457.002 116.13 457.002 117.344C457.002 118.573 456.838 119.622 456.509 120.492C456.186 121.362 455.713 122.023 455.088 122.477C454.468 122.93 453.723 123.156 452.853 123.156ZM452.853 121.68C453.364 121.68 453.801 121.513 454.166 121.18C454.535 120.846 454.814 120.357 455.002 119.711C455.194 119.065 455.288 118.276 455.283 117.344C455.283 116.417 455.186 115.628 454.994 114.977C454.801 114.326 454.522 113.831 454.158 113.492C453.793 113.154 453.358 112.984 452.853 112.984C452.343 112.984 451.905 113.154 451.541 113.492C451.181 113.831 450.903 114.326 450.705 114.977C450.507 115.628 450.408 116.417 450.408 117.344C450.408 118.276 450.507 119.065 450.705 119.711C450.903 120.357 451.181 120.846 451.541 121.18C451.9 121.513 452.338 121.68 452.853 121.68ZM462.781 113.883C462.781 114.987 462.612 116.042 462.273 117.047C461.935 118.052 461.458 118.94 460.844 119.711C460.229 120.482 459.521 121.065 458.719 121.461L457.789 120.219C458.518 119.896 459.167 119.406 459.734 118.75C460.307 118.094 460.753 117.341 461.07 116.492C461.388 115.643 461.549 114.773 461.555 113.883V111.484H462.781V113.883ZM463.047 113.883C463.042 114.732 463.198 115.562 463.516 116.375C463.833 117.188 464.273 117.914 464.836 118.555C465.398 119.19 466.036 119.664 466.75 119.977L465.859 121.156C465.062 120.776 464.357 120.219 463.742 119.484C463.133 118.745 462.656 117.893 462.312 116.93C461.974 115.961 461.807 114.945 461.812 113.883V111.484H463.047V113.883ZM469.508 124.359H468.016V110.32H469.508V124.359Z" fill="#294DCC"/>
<rect x="353" y="256" width="100" height="100" rx="50" fill="#E5EBFF"/>
<path d="M380.692 300.156C379.854 300.151 379.091 299.966 378.403 299.602C377.716 299.237 377.164 298.641 376.747 297.812C376.33 296.984 376.122 295.914 376.122 294.602C376.122 293.346 376.315 292.263 376.7 291.352C377.085 290.435 377.627 289.737 378.325 289.258C379.023 288.773 379.841 288.531 380.778 288.531C381.518 288.531 382.182 288.674 382.77 288.961C383.364 289.247 383.838 289.643 384.192 290.148C384.552 290.648 384.77 291.208 384.848 291.828H382.528C382.466 291.562 382.354 291.333 382.192 291.141C382.036 290.943 381.835 290.794 381.591 290.695C381.351 290.596 381.08 290.547 380.778 290.547C380.268 290.547 379.838 290.693 379.489 290.984C379.145 291.271 378.882 291.685 378.7 292.227C378.523 292.763 378.432 293.404 378.427 294.148H378.52C378.697 293.82 378.932 293.536 379.223 293.297C379.52 293.052 379.856 292.867 380.231 292.742C380.606 292.617 381.002 292.555 381.419 292.555C382.091 292.555 382.695 292.714 383.231 293.031C383.773 293.344 384.197 293.779 384.505 294.336C384.812 294.888 384.966 295.513 384.966 296.211C384.966 296.977 384.786 297.659 384.427 298.258C384.072 298.852 383.57 299.318 382.919 299.656C382.273 299.99 381.531 300.156 380.692 300.156ZM380.677 298.305C381.057 298.305 381.401 298.216 381.708 298.039C382.015 297.857 382.255 297.612 382.427 297.305C382.598 296.997 382.684 296.656 382.684 296.281C382.684 295.906 382.601 295.565 382.434 295.258C382.268 294.951 382.028 294.711 381.716 294.539C381.408 294.362 381.067 294.273 380.692 294.273C380.317 294.273 379.976 294.362 379.669 294.539C379.361 294.716 379.117 294.961 378.934 295.273C378.752 295.581 378.661 295.919 378.661 296.289C378.661 296.654 378.749 296.99 378.927 297.297C379.104 297.604 379.343 297.849 379.645 298.031C379.953 298.214 380.296 298.305 380.677 298.305ZM387.456 301.703H385.472L389.113 288.156H391.113L387.456 301.703ZM396.627 300H394.267V290.922H394.205L391.619 292.562V290.469L394.416 288.688H396.627V300ZM403.727 300H401.367V290.922H401.305L398.719 292.562V290.469L401.516 288.688H403.727V300ZM406.311 295.688C406.316 294.266 406.524 292.938 406.936 291.703C407.353 290.464 407.949 289.297 408.725 288.203H410.928C410.558 288.74 410.204 289.419 409.866 290.242C409.527 291.065 409.251 291.956 409.038 292.914C408.829 293.872 408.725 294.797 408.725 295.688C408.725 296.578 408.829 297.503 409.038 298.461C409.251 299.414 409.527 300.305 409.866 301.133C410.204 301.961 410.558 302.646 410.928 303.188H408.725C407.949 302.089 407.353 300.922 406.936 299.688C406.524 298.448 406.316 297.115 406.311 295.688ZM422.919 295.852H412.856V294.273H422.919V295.852ZM424.333 299.852H411.333V298.258H424.333V299.852ZM418.817 298.945H416.825V295.055H418.817V298.945ZM422.809 289.797H414.888V294.891H412.856V288.195H422.809V289.797ZM422.473 292.789H414.294V291.227H422.473V292.789ZM428.698 291.703C429.115 292.938 429.326 294.266 429.331 295.688C429.326 297.115 429.115 298.448 428.698 299.688C428.287 300.922 427.693 302.089 426.917 303.188H424.714C425.084 302.646 425.438 301.961 425.777 301.133C426.115 300.305 426.389 299.414 426.597 298.461C426.81 297.503 426.917 296.578 426.917 295.688C426.917 294.797 426.81 293.872 426.597 292.914C426.389 291.956 426.115 291.065 425.777 290.242C425.438 289.419 425.084 288.74 424.714 288.203H426.917C427.693 289.297 428.287 290.464 428.698 291.703Z" fill="#294DCC"/>
<path d="M385.136 322.625H383.683V319.211H385.136V322.625ZM384.417 312.172C385.407 312.172 386.295 312.328 387.081 312.641C387.868 312.948 388.48 313.385 388.917 313.953C389.36 314.516 389.581 315.164 389.581 315.898C389.581 316.643 389.36 317.297 388.917 317.859C388.48 318.422 387.868 318.859 387.081 319.172C386.295 319.479 385.407 319.633 384.417 319.633C383.422 319.633 382.534 319.479 381.753 319.172C380.977 318.859 380.365 318.422 379.917 317.859C379.469 317.297 379.245 316.643 379.245 315.898C379.245 315.164 379.469 314.516 379.917 313.953C380.365 313.385 380.977 312.948 381.753 312.641C382.534 312.328 383.422 312.172 384.417 312.172ZM384.417 313.375C383.698 313.375 383.055 313.479 382.487 313.688C381.925 313.896 381.485 314.193 381.167 314.578C380.855 314.958 380.698 315.398 380.698 315.898C380.698 316.409 380.855 316.857 381.167 317.242C381.485 317.622 381.925 317.919 382.487 318.133C383.05 318.341 383.693 318.445 384.417 318.445C385.141 318.445 385.782 318.341 386.339 318.133C386.902 317.919 387.342 317.622 387.659 317.242C387.977 316.857 388.136 316.409 388.136 315.898C388.136 315.398 387.977 314.958 387.659 314.578C387.342 314.193 386.902 313.896 386.339 313.688C385.777 313.479 385.136 313.375 384.417 313.375ZM390.847 323.578H378.034V322.352H390.847V323.578ZM403.509 314.086H392.103V312.875H403.509V314.086ZM404.275 321.602H391.462V320.391H404.275V321.602ZM398.564 325.352H397.111V321.391H398.564V325.352ZM397.845 314.805C398.809 314.805 399.64 314.896 400.337 315.078C401.041 315.255 401.577 315.523 401.947 315.883C402.317 316.237 402.502 316.667 402.502 317.172C402.502 317.667 402.314 318.089 401.939 318.438C401.569 318.781 401.035 319.047 400.337 319.234C399.64 319.422 398.809 319.516 397.845 319.516C396.871 319.516 396.035 319.422 395.337 319.234C394.645 319.047 394.111 318.781 393.736 318.438C393.366 318.089 393.184 317.667 393.189 317.172C393.184 316.667 393.366 316.237 393.736 315.883C394.111 315.523 394.645 315.255 395.337 315.078C396.035 314.896 396.871 314.805 397.845 314.805ZM397.845 315.922C397.173 315.922 396.603 315.969 396.134 316.062C395.671 316.156 395.317 316.297 395.072 316.484C394.832 316.672 394.715 316.901 394.72 317.172C394.715 317.432 394.832 317.654 395.072 317.836C395.317 318.013 395.671 318.151 396.134 318.25C396.603 318.344 397.173 318.391 397.845 318.391C398.507 318.391 399.069 318.344 399.533 318.25C400.002 318.151 400.356 318.013 400.595 317.836C400.835 317.654 400.957 317.432 400.962 317.172C400.957 316.901 400.835 316.672 400.595 316.484C400.356 316.297 400.002 316.156 399.533 316.062C399.069 315.969 398.507 315.922 397.845 315.922ZM398.564 313.68H397.111V311.258H398.564V313.68ZM413.178 324H411.444V314.414H411.381L408.686 316.18V314.531L411.491 312.688H413.178V324ZM420.044 314.883C420.044 315.987 419.874 317.042 419.536 318.047C419.197 319.052 418.721 319.94 418.106 320.711C417.492 321.482 416.783 322.065 415.981 322.461L415.052 321.219C415.781 320.896 416.429 320.406 416.997 319.75C417.57 319.094 418.015 318.341 418.333 317.492C418.651 316.643 418.812 315.773 418.817 314.883V312.484H420.044V314.883ZM420.309 314.883C420.304 315.732 420.46 316.562 420.778 317.375C421.096 318.188 421.536 318.914 422.098 319.555C422.661 320.19 423.299 320.664 424.013 320.977L423.122 322.156C422.325 321.776 421.619 321.219 421.005 320.484C420.395 319.745 419.919 318.893 419.575 317.93C419.236 316.961 419.07 315.945 419.075 314.883V312.484H420.309V314.883ZM426.77 325.359H425.278V311.32H426.77V325.359Z" fill="#294DCC"/>
<rect x="66" y="250" width="100" height="100" rx="50" fill="#E5EBFF"/>
<path d="M93.6922 294.156C92.8536 294.151 92.0906 293.966 91.4031 293.602C90.7156 293.237 90.1635 292.641 89.7469 291.812C89.3302 290.984 89.1219 289.914 89.1219 288.602C89.1219 287.346 89.3146 286.263 89.7 285.352C90.0854 284.435 90.6271 283.737 91.325 283.258C92.0229 282.773 92.8406 282.531 93.7781 282.531C94.5177 282.531 95.1818 282.674 95.7703 282.961C96.3641 283.247 96.838 283.643 97.1922 284.148C97.5516 284.648 97.7703 285.208 97.8484 285.828H95.5281C95.4656 285.562 95.3536 285.333 95.1922 285.141C95.0359 284.943 94.8354 284.794 94.5906 284.695C94.351 284.596 94.0802 284.547 93.7781 284.547C93.2677 284.547 92.838 284.693 92.4891 284.984C92.1453 285.271 91.8823 285.685 91.7 286.227C91.5229 286.763 91.4318 287.404 91.4266 288.148H91.5203C91.6974 287.82 91.9318 287.536 92.2234 287.297C92.5203 287.052 92.8563 286.867 93.2313 286.742C93.6063 286.617 94.0021 286.555 94.4188 286.555C95.0906 286.555 95.6948 286.714 96.2313 287.031C96.7729 287.344 97.1974 287.779 97.5047 288.336C97.812 288.888 97.9656 289.513 97.9656 290.211C97.9656 290.977 97.7859 291.659 97.4266 292.258C97.0724 292.852 96.5698 293.318 95.9188 293.656C95.2729 293.99 94.5307 294.156 93.6922 294.156ZM93.6766 292.305C94.0568 292.305 94.4005 292.216 94.7078 292.039C95.0151 291.857 95.2547 291.612 95.4266 291.305C95.5984 290.997 95.6844 290.656 95.6844 290.281C95.6844 289.906 95.601 289.565 95.4344 289.258C95.2677 288.951 95.0281 288.711 94.7156 288.539C94.4083 288.362 94.0672 288.273 93.6922 288.273C93.3172 288.273 92.976 288.362 92.6688 288.539C92.3615 288.716 92.1167 288.961 91.9344 289.273C91.7521 289.581 91.6609 289.919 91.6609 290.289C91.6609 290.654 91.7495 290.99 91.9266 291.297C92.1036 291.604 92.3432 291.849 92.6453 292.031C92.9526 292.214 93.2964 292.305 93.6766 292.305ZM100.456 295.703H98.4719L102.113 282.156H104.113L100.456 295.703ZM109.627 294H107.267V284.922H107.205L104.619 286.562V284.469L107.416 282.688H109.627V294ZM116.727 294H114.367V284.922H114.305L111.719 286.562V284.469L114.516 282.688H116.727V294ZM119.311 289.688C119.316 288.266 119.524 286.938 119.936 285.703C120.353 284.464 120.949 283.297 121.725 282.203H123.928C123.558 282.74 123.204 283.419 122.866 284.242C122.527 285.065 122.251 285.956 122.038 286.914C121.829 287.872 121.725 288.797 121.725 289.688C121.725 290.578 121.829 291.503 122.038 292.461C122.251 293.414 122.527 294.305 122.866 295.133C123.204 295.961 123.558 296.646 123.928 297.188H121.725C120.949 296.089 120.353 294.922 119.936 293.688C119.524 292.448 119.316 291.115 119.311 289.688ZM135.919 289.852H125.856V288.273H135.919V289.852ZM137.333 293.852H124.333V292.258H137.333V293.852ZM131.817 292.945H129.825V289.055H131.817V292.945ZM135.809 283.797H127.888V288.891H125.856V282.195H135.809V283.797ZM135.473 286.789H127.294V285.227H135.473V286.789ZM141.698 285.703C142.115 286.938 142.326 288.266 142.331 289.688C142.326 291.115 142.115 292.448 141.698 293.688C141.287 294.922 140.693 296.089 139.917 297.188H137.714C138.084 296.646 138.438 295.961 138.777 295.133C139.115 294.305 139.389 293.414 139.597 292.461C139.81 291.503 139.917 290.578 139.917 289.688C139.917 288.797 139.81 287.872 139.597 286.914C139.389 285.956 139.115 285.065 138.777 284.242C138.438 283.419 138.084 282.74 137.714 282.203H139.917C140.693 283.297 141.287 284.464 141.698 285.703Z" fill="#294DCC"/>
<path d="M96.9641 316.625H95.5109V313.211H96.9641V316.625ZM96.2453 306.172C97.2349 306.172 98.1229 306.328 98.9094 306.641C99.6958 306.948 100.308 307.385 100.745 307.953C101.188 308.516 101.409 309.164 101.409 309.898C101.409 310.643 101.188 311.297 100.745 311.859C100.308 312.422 99.6958 312.859 98.9094 313.172C98.1229 313.479 97.2349 313.633 96.2453 313.633C95.2505 313.633 94.3625 313.479 93.5812 313.172C92.8052 312.859 92.1932 312.422 91.7453 311.859C91.2974 311.297 91.0734 310.643 91.0734 309.898C91.0734 309.164 91.2974 308.516 91.7453 307.953C92.1932 307.385 92.8052 306.948 93.5812 306.641C94.3625 306.328 95.2505 306.172 96.2453 306.172ZM96.2453 307.375C95.5266 307.375 94.8833 307.479 94.3156 307.688C93.7531 307.896 93.313 308.193 92.9953 308.578C92.6828 308.958 92.5266 309.398 92.5266 309.898C92.5266 310.409 92.6828 310.857 92.9953 311.242C93.313 311.622 93.7531 311.919 94.3156 312.133C94.8781 312.341 95.5214 312.445 96.2453 312.445C96.9693 312.445 97.6099 312.341 98.1672 312.133C98.7297 311.919 99.1698 311.622 99.4875 311.242C99.8052 310.857 99.9641 310.409 99.9641 309.898C99.9641 309.398 99.8052 308.958 99.4875 308.578C99.1698 308.193 98.7297 307.896 98.1672 307.688C97.6047 307.479 96.9641 307.375 96.2453 307.375ZM102.675 317.578H89.8625V316.352H102.675V317.578ZM115.337 308.086H103.931V306.875H115.337V308.086ZM116.103 315.602H103.291V314.391H116.103V315.602ZM110.392 319.352H108.939V315.391H110.392V319.352ZM109.673 308.805C110.637 308.805 111.468 308.896 112.166 309.078C112.869 309.255 113.405 309.523 113.775 309.883C114.145 310.237 114.33 310.667 114.33 311.172C114.33 311.667 114.142 312.089 113.767 312.438C113.397 312.781 112.864 313.047 112.166 313.234C111.468 313.422 110.637 313.516 109.673 313.516C108.699 313.516 107.864 313.422 107.166 313.234C106.473 313.047 105.939 312.781 105.564 312.438C105.194 312.089 105.012 311.667 105.017 311.172C105.012 310.667 105.194 310.237 105.564 309.883C105.939 309.523 106.473 309.255 107.166 309.078C107.864 308.896 108.699 308.805 109.673 308.805ZM109.673 309.922C109.002 309.922 108.431 309.969 107.962 310.062C107.499 310.156 107.145 310.297 106.9 310.484C106.66 310.672 106.543 310.901 106.548 311.172C106.543 311.432 106.66 311.654 106.9 311.836C107.145 312.013 107.499 312.151 107.962 312.25C108.431 312.344 109.002 312.391 109.673 312.391C110.335 312.391 110.897 312.344 111.361 312.25C111.83 312.151 112.184 312.013 112.423 311.836C112.663 311.654 112.785 311.432 112.791 311.172C112.785 310.901 112.663 310.672 112.423 310.484C112.184 310.297 111.83 310.156 111.361 310.062C110.897 309.969 110.335 309.922 109.673 309.922ZM110.392 307.68H108.939V305.258H110.392V307.68ZM120.702 316.75L124.631 312.789C125.1 312.299 125.459 311.901 125.709 311.594C125.965 311.286 126.157 310.99 126.287 310.703C126.423 310.417 126.491 310.112 126.491 309.789C126.491 309.424 126.399 309.107 126.217 308.836C126.035 308.56 125.785 308.346 125.467 308.195C125.149 308.044 124.793 307.969 124.397 307.969C123.98 307.969 123.618 308.052 123.311 308.219C123.004 308.38 122.764 308.612 122.592 308.914C122.426 309.216 122.342 309.568 122.342 309.969H120.709C120.704 309.286 120.86 308.688 121.178 308.172C121.496 307.651 121.939 307.247 122.506 306.961C123.074 306.674 123.717 306.531 124.436 306.531C125.149 306.531 125.785 306.672 126.342 306.953C126.905 307.229 127.342 307.612 127.655 308.102C127.967 308.586 128.123 309.13 128.123 309.734C128.118 310.172 128.035 310.591 127.873 310.992C127.717 311.388 127.444 311.831 127.053 312.32C126.668 312.805 126.118 313.398 125.405 314.102L123.1 316.438V316.523H128.311V318H120.709L120.702 316.75ZM134.216 308.883C134.216 309.987 134.046 311.042 133.708 312.047C133.369 313.052 132.893 313.94 132.278 314.711C131.664 315.482 130.955 316.065 130.153 316.461L129.223 315.219C129.953 314.896 130.601 314.406 131.169 313.75C131.742 313.094 132.187 312.341 132.505 311.492C132.822 310.643 132.984 309.773 132.989 308.883V306.484H134.216V308.883ZM134.481 308.883C134.476 309.732 134.632 310.562 134.95 311.375C135.268 312.188 135.708 312.914 136.27 313.555C136.833 314.19 137.471 314.664 138.184 314.977L137.294 316.156C136.497 315.776 135.791 315.219 135.177 314.484C134.567 313.745 134.091 312.893 133.747 311.93C133.408 310.961 133.242 309.945 133.247 308.883V306.484H134.481V308.883ZM140.942 319.359H139.45V305.32H140.942V319.359Z" fill="#294DCC"/>
<rect x="54" y="49" width="100" height="100" rx="50" fill="#E5EBFF"/>
<path d="M80.5594 93.1562C79.7208 93.151 78.9578 92.9661 78.2703 92.6016C77.5828 92.237 77.0307 91.6406 76.6141 90.8125C76.1974 89.9844 75.9891 88.9141 75.9891 87.6016C75.9891 86.3464 76.1818 85.263 76.5672 84.3516C76.9526 83.4349 77.4943 82.737 78.1922 82.2578C78.8901 81.7734 79.7078 81.5312 80.6453 81.5312C81.3849 81.5312 82.049 81.6745 82.6375 81.9609C83.2313 82.2474 83.7052 82.6432 84.0594 83.1484C84.4188 83.6484 84.6375 84.2083 84.7156 84.8281H82.3953C82.3328 84.5625 82.2208 84.3333 82.0594 84.1406C81.9031 83.9427 81.7026 83.7943 81.4578 83.6953C81.2182 83.5964 80.9474 83.5469 80.6453 83.5469C80.1349 83.5469 79.7052 83.6927 79.3563 83.9844C79.0125 84.2708 78.7495 84.6849 78.5672 85.2266C78.3901 85.763 78.299 86.4036 78.2938 87.1484H78.3875C78.5646 86.8203 78.799 86.5365 79.0906 86.2969C79.3875 86.0521 79.7234 85.8672 80.0984 85.7422C80.4734 85.6172 80.8693 85.5547 81.2859 85.5547C81.9578 85.5547 82.562 85.7135 83.0984 86.0312C83.6401 86.3438 84.0646 86.7786 84.3719 87.3359C84.6792 87.888 84.8328 88.513 84.8328 89.2109C84.8328 89.9766 84.6531 90.6589 84.2938 91.2578C83.9396 91.8516 83.437 92.3177 82.7859 92.6562C82.1401 92.9896 81.3979 93.1562 80.5594 93.1562ZM80.5438 91.3047C80.924 91.3047 81.2677 91.2161 81.575 91.0391C81.8823 90.8568 82.1219 90.612 82.2938 90.3047C82.4656 89.9974 82.5516 89.6562 82.5516 89.2812C82.5516 88.9062 82.4682 88.5651 82.3016 88.2578C82.1349 87.9505 81.8953 87.7109 81.5828 87.5391C81.2755 87.362 80.9344 87.2734 80.5594 87.2734C80.1844 87.2734 79.8432 87.362 79.5359 87.5391C79.2286 87.7161 78.9839 87.9609 78.8016 88.2734C78.6193 88.5807 78.5281 88.9193 78.5281 89.2891C78.5281 89.6536 78.6167 89.9896 78.7938 90.2969C78.9708 90.6042 79.2104 90.849 79.5125 91.0312C79.8198 91.2135 80.1635 91.3047 80.5438 91.3047ZM87.3234 94.7031H85.3391L88.9797 81.1562H90.9797L87.3234 94.7031ZM96.4938 93H94.1344V83.9219H94.0719L91.4859 85.5625V83.4688L94.2828 81.6875H96.4938V93ZM98.7109 91.3047L102.781 87.5625C103.177 87.1771 103.487 86.8568 103.711 86.6016C103.935 86.3464 104.107 86.0911 104.227 85.8359C104.346 85.5807 104.406 85.3073 104.406 85.0156C104.406 84.6927 104.328 84.4089 104.172 84.1641C104.016 83.9193 103.802 83.7318 103.531 83.6016C103.26 83.4661 102.953 83.3984 102.609 83.3984C102.255 83.3984 101.945 83.4688 101.68 83.6094C101.419 83.75 101.216 83.9531 101.07 84.2188C100.924 84.4844 100.852 84.7969 100.852 85.1562H98.6172C98.6172 84.4271 98.7839 83.7891 99.1172 83.2422C99.4505 82.6953 99.9219 82.2734 100.531 81.9766C101.141 81.6797 101.841 81.5312 102.633 81.5312C103.43 81.5312 104.133 81.6719 104.742 81.9531C105.357 82.2344 105.831 82.6276 106.164 83.1328C106.497 83.638 106.664 84.2161 106.664 84.8672C106.664 85.3151 106.578 85.7448 106.406 86.1562C106.24 86.5625 105.943 87.0182 105.516 87.5234C105.089 88.0234 104.487 88.625 103.711 89.3281L101.984 90.9922V91.0703H106.828V93H98.7188L98.7109 91.3047ZM108.444 88.6875C108.449 87.2656 108.657 85.9375 109.069 84.7031C109.485 83.4635 110.082 82.2969 110.858 81.2031H113.061C112.691 81.7396 112.337 82.4193 111.998 83.2422C111.66 84.0651 111.384 84.9557 111.17 85.9141C110.962 86.8724 110.858 87.7969 110.858 88.6875C110.858 89.5781 110.962 90.5026 111.17 91.4609C111.384 92.4141 111.66 93.3047 111.998 94.1328C112.337 94.9609 112.691 95.6458 113.061 96.1875H110.858C110.082 95.0885 109.485 93.9219 109.069 92.6875C108.657 91.4479 108.449 90.1146 108.444 88.6875ZM117.497 80.6328C118.216 80.6328 118.864 80.7708 119.442 81.0469C120.026 81.3229 120.481 81.7109 120.809 82.2109C121.138 82.7057 121.302 83.263 121.302 83.8828C121.302 84.5026 121.138 85.0599 120.809 85.5547C120.481 86.0443 120.026 86.4271 119.442 86.7031C118.864 86.9792 118.216 87.1172 117.497 87.1172C116.773 87.1172 116.119 86.9792 115.536 86.7031C114.958 86.4271 114.502 86.0443 114.169 85.5547C113.841 85.0599 113.677 84.5026 113.677 83.8828C113.677 83.263 113.841 82.7057 114.169 82.2109C114.502 81.7109 114.96 81.3229 115.544 81.0469C116.127 80.7708 116.778 80.6328 117.497 80.6328ZM117.497 82.2656C117.132 82.2708 116.807 82.3359 116.52 82.4609C116.234 82.5859 116.01 82.7708 115.848 83.0156C115.687 83.2604 115.609 83.5495 115.614 83.8828C115.609 84.2161 115.687 84.5052 115.848 84.75C116.01 84.9948 116.234 85.1849 116.52 85.3203C116.807 85.4505 117.132 85.5156 117.497 85.5156C117.861 85.5156 118.184 85.4505 118.466 85.3203C118.752 85.1849 118.976 84.9948 119.138 84.75C119.299 84.5052 119.38 84.2161 119.38 83.8828C119.38 83.5495 119.299 83.2604 119.138 83.0156C118.976 82.7708 118.752 82.5859 118.466 82.4609C118.184 82.3359 117.861 82.2708 117.497 82.2656ZM125.356 87.3438H123.364V80.2031H125.356V87.3438ZM125.356 91.7969H117.802V93.5312H115.856V90.3438H123.372V89.4688H115.825V87.9297H125.356V91.7969ZM125.747 94.2812H115.856V92.7109H125.747V94.2812ZM130.831 84.7031C131.248 85.9375 131.459 87.2656 131.464 88.6875C131.459 90.1146 131.248 91.4479 130.831 92.6875C130.42 93.9219 129.826 95.0885 129.05 96.1875H126.847C127.217 95.6458 127.571 94.9609 127.909 94.1328C128.248 93.3047 128.521 92.4141 128.73 91.4609C128.943 90.5026 129.05 89.5781 129.05 88.6875C129.05 87.7969 128.943 86.8724 128.73 85.9141C128.521 84.9557 128.248 84.0651 127.909 83.2422C127.571 82.4193 127.217 81.7396 126.847 81.2031H129.05C129.826 82.2969 130.42 83.4635 130.831 84.7031Z" fill="#294DCC"/>
<path d="M84.7375 115.625H83.2844V112.211H84.7375V115.625ZM84.0187 105.172C85.0083 105.172 85.8964 105.328 86.6828 105.641C87.4693 105.948 88.0812 106.385 88.5187 106.953C88.9615 107.516 89.1828 108.164 89.1828 108.898C89.1828 109.643 88.9615 110.297 88.5187 110.859C88.0812 111.422 87.4693 111.859 86.6828 112.172C85.8964 112.479 85.0083 112.633 84.0187 112.633C83.024 112.633 82.1359 112.479 81.3547 112.172C80.5786 111.859 79.9667 111.422 79.5187 110.859C79.0708 110.297 78.8469 109.643 78.8469 108.898C78.8469 108.164 79.0708 107.516 79.5187 106.953C79.9667 106.385 80.5786 105.948 81.3547 105.641C82.1359 105.328 83.024 105.172 84.0187 105.172ZM84.0187 106.375C83.3 106.375 82.6568 106.479 82.0891 106.688C81.5266 106.896 81.0865 107.193 80.7687 107.578C80.4562 107.958 80.3 108.398 80.3 108.898C80.3 109.409 80.4562 109.857 80.7687 110.242C81.0865 110.622 81.5266 110.919 82.0891 111.133C82.6516 111.341 83.2948 111.445 84.0187 111.445C84.7427 111.445 85.3833 111.341 85.9406 111.133C86.5031 110.919 86.9432 110.622 87.2609 110.242C87.5786 109.857 87.7375 109.409 87.7375 108.898C87.7375 108.398 87.5786 107.958 87.2609 107.578C86.9432 107.193 86.5031 106.896 85.9406 106.688C85.3781 106.479 84.7375 106.375 84.0187 106.375ZM90.4484 116.578H77.6359V115.352H90.4484V116.578ZM103.111 107.086H91.7047V105.875H103.111V107.086ZM103.877 114.602H91.0641V113.391H103.877V114.602ZM98.1656 118.352H96.7125V114.391H98.1656V118.352ZM97.4469 107.805C98.4104 107.805 99.2411 107.896 99.9391 108.078C100.642 108.255 101.179 108.523 101.548 108.883C101.918 109.237 102.103 109.667 102.103 110.172C102.103 110.667 101.916 111.089 101.541 111.438C101.171 111.781 100.637 112.047 99.9391 112.234C99.2411 112.422 98.4104 112.516 97.4469 112.516C96.4729 112.516 95.637 112.422 94.9391 112.234C94.2464 112.047 93.7125 111.781 93.3375 111.438C92.9677 111.089 92.7854 110.667 92.7906 110.172C92.7854 109.667 92.9677 109.237 93.3375 108.883C93.7125 108.523 94.2464 108.255 94.9391 108.078C95.637 107.896 96.4729 107.805 97.4469 107.805ZM97.4469 108.922C96.775 108.922 96.2047 108.969 95.7359 109.062C95.2724 109.156 94.9182 109.297 94.6734 109.484C94.4339 109.672 94.3167 109.901 94.3219 110.172C94.3167 110.432 94.4339 110.654 94.6734 110.836C94.9182 111.013 95.2724 111.151 95.7359 111.25C96.2047 111.344 96.775 111.391 97.4469 111.391C98.1083 111.391 98.6708 111.344 99.1344 111.25C99.6031 111.151 99.9573 111.013 100.197 110.836C100.436 110.654 100.559 110.432 100.564 110.172C100.559 109.901 100.436 109.672 100.197 109.484C99.9573 109.297 99.6031 109.156 99.1344 109.062C98.6708 108.969 98.1083 108.922 97.4469 108.922ZM98.1656 106.68H96.7125V104.258H98.1656V106.68ZM112.577 117.156C111.811 117.146 111.108 116.969 110.467 116.625C109.827 116.281 109.306 115.706 108.905 114.898C108.504 114.091 108.303 113.031 108.303 111.719C108.303 110.422 108.483 109.31 108.842 108.383C109.202 107.451 109.712 106.742 110.373 106.258C111.035 105.773 111.816 105.531 112.717 105.531C113.399 105.531 114.011 105.664 114.553 105.93C115.1 106.19 115.543 106.557 115.881 107.031C116.22 107.5 116.433 108.034 116.522 108.633H114.819C114.741 108.315 114.608 108.036 114.42 107.797C114.233 107.552 113.993 107.365 113.702 107.234C113.415 107.104 113.087 107.039 112.717 107.039C112.134 107.039 111.636 107.201 111.225 107.523C110.814 107.841 110.498 108.307 110.28 108.922C110.066 109.531 109.957 110.26 109.952 111.109H110.077C110.285 110.792 110.535 110.518 110.827 110.289C111.123 110.055 111.454 109.878 111.819 109.758C112.189 109.638 112.577 109.578 112.983 109.578C113.649 109.578 114.259 109.74 114.811 110.062C115.368 110.38 115.808 110.823 116.131 111.391C116.459 111.953 116.623 112.589 116.623 113.297C116.623 114.031 116.454 114.693 116.116 115.281C115.777 115.865 115.301 116.326 114.686 116.664C114.077 116.997 113.373 117.161 112.577 117.156ZM112.569 115.719C113.017 115.719 113.42 115.612 113.78 115.398C114.144 115.18 114.431 114.891 114.639 114.531C114.853 114.167 114.959 113.768 114.959 113.336C114.959 112.904 114.858 112.508 114.655 112.148C114.452 111.789 114.168 111.505 113.803 111.297C113.444 111.083 113.04 110.977 112.592 110.977C112.144 110.977 111.735 111.086 111.366 111.305C111.001 111.518 110.709 111.807 110.491 112.172C110.272 112.536 110.16 112.927 110.155 113.344C110.155 113.76 110.261 114.151 110.475 114.516C110.689 114.875 110.978 115.167 111.342 115.391C111.707 115.609 112.116 115.719 112.569 115.719ZM122.442 107.883C122.442 108.987 122.273 110.042 121.934 111.047C121.596 112.052 121.119 112.94 120.505 113.711C119.89 114.482 119.182 115.065 118.38 115.461L117.45 114.219C118.179 113.896 118.828 113.406 119.395 112.75C119.968 112.094 120.414 111.341 120.731 110.492C121.049 109.643 121.21 108.773 121.216 107.883V105.484H122.442V107.883ZM122.708 107.883C122.703 108.732 122.859 109.562 123.177 110.375C123.494 111.188 123.934 111.914 124.497 112.555C125.059 113.19 125.697 113.664 126.411 113.977L125.52 115.156C124.723 114.776 124.018 114.219 123.403 113.484C122.794 112.745 122.317 111.893 121.973 110.93C121.635 109.961 121.468 108.945 121.473 107.883V105.484H122.708V107.883ZM129.169 118.359H127.677V104.32H129.169V118.359Z" fill="#294DCC"/>
</svg>
