<svg width="280" height="280" viewBox="0 0 280 280" fill="none" xmlns="http://www.w3.org/2000/svg">
<g clip-path="url(#clip0_1898_32153)">
<rect width="280" height="280" rx="8" fill="#19A02F"/>
<path d="M-24.5214 187.038C-23.9436 183.576 -26.2865 180.301 -29.7542 179.722L-22.3145 135.148C5.8132 139.843 24.8158 166.412 20.1292 194.491L4.66843 287.12C4.09065 290.581 6.43338 293.857 9.90113 294.436C13.369 295.015 16.6486 292.677 17.2264 289.216L32.6871 196.587C37.3738 168.508 63.9751 149.551 92.1031 154.246C120.23 158.941 139.233 185.509 134.546 213.588L119.085 306.217C118.508 309.679 120.851 312.954 124.318 313.533C127.786 314.112 131.066 311.775 131.644 308.313L147.104 215.684C151.791 187.605 178.392 168.649 206.519 173.343C234.648 178.038 253.65 204.607 248.964 232.686L233.503 325.314C232.925 328.776 235.267 332.052 238.736 332.631C242.203 333.209 245.484 330.872 246.061 327.411L261.522 234.782C266.209 206.703 292.81 187.746 320.937 192.441L313.497 237.014C310.03 236.435 306.75 238.773 306.172 242.234L290.711 334.863C286.024 362.942 259.423 381.899 231.296 377.204C203.168 372.509 184.165 345.94 188.852 317.862L204.313 225.233C204.89 221.771 202.548 218.496 199.08 217.917C195.612 217.338 192.332 219.675 191.754 223.137L176.294 315.766C171.607 343.844 145.006 362.801 116.879 358.107C88.7513 353.412 69.7489 326.843 74.4356 298.764L89.8963 206.136C90.4741 202.674 88.1307 199.398 84.6634 198.819C81.1947 198.24 77.9157 200.578 77.338 204.039L61.8772 296.668C57.1906 324.747 30.589 343.704 2.46136 339.009C-25.6663 334.314 -44.6688 307.746 -39.9821 279.667L-24.5214 187.038Z" fill="#21AD38"/>
</g>
<defs>
<clipPath id="clip0_1898_32153">
<rect width="280" height="280" rx="8" fill="white"/>
</clipPath>
</defs>
</svg>
