<svg width="281" height="280" viewBox="0 0 281 280" fill="none" xmlns="http://www.w3.org/2000/svg">
<g clip-path="url(#clip0_1898_32157)">
<rect x="0.0683594" width="280" height="280" rx="8" fill="#FF7940"/>
<path d="M-30.9931 129.436C-31.2788 125.938 -34.3512 123.334 -37.8553 123.62L-41.5342 78.5801C-13.1121 76.2585 11.8073 97.3774 14.1249 125.75L21.7701 219.349C22.0558 222.847 25.1281 225.451 28.6321 225.164C32.1363 224.878 34.7453 221.81 34.4596 218.312L26.8143 124.714C24.4968 96.3409 45.6587 71.458 74.0812 69.1365C102.503 66.8149 127.422 87.9338 129.74 116.307L137.385 209.905C137.671 213.403 140.743 216.007 144.247 215.721C147.751 215.435 150.36 212.367 150.075 208.869L142.429 115.27C140.112 86.8973 161.274 62.0145 189.695 59.6929C218.118 57.3713 243.037 78.4902 245.355 106.863L253 200.462C253.286 203.959 256.358 206.563 259.863 206.277C263.366 205.991 265.976 202.923 265.69 199.425L258.045 105.827C255.727 77.4537 276.889 52.5709 305.311 50.2493L308.99 95.2893C305.486 95.5755 302.876 98.6435 303.162 102.141L310.807 195.74C313.125 224.113 291.963 248.996 263.541 251.317C235.118 253.639 210.199 232.52 207.882 204.147L200.237 110.548C199.951 107.051 196.879 104.447 193.374 104.733C189.871 105.019 187.261 108.087 187.547 111.585L195.192 205.184C197.509 233.556 176.348 258.439 147.926 260.761C119.504 263.082 94.5852 241.963 92.2677 213.591L84.6224 119.992C84.3367 116.494 81.2638 113.89 77.7601 114.176C74.2552 114.463 71.6469 117.531 71.9326 121.028L79.5778 214.627C81.8954 243 60.7332 267.883 32.3111 270.204C3.88896 272.526 -21.0303 251.407 -23.3479 223.034L-30.9931 129.436Z" fill="#FF8B5A"/>
</g>
<defs>
<clipPath id="clip0_1898_32157">
<rect x="0.0683594" width="280" height="280" rx="8" fill="white"/>
</clipPath>
</defs>
</svg>
