<svg width="281" height="280" viewBox="0 0 281 280" fill="none" xmlns="http://www.w3.org/2000/svg">
<g clip-path="url(#clip0_1898_32161)">
<rect x="0.931641" width="280" height="280" rx="8" fill="#EB2C87"/>
<path d="M-34.8597 115.693C-35.2297 111.164 -39.2079 107.792 -43.7451 108.163L-48.5088 49.8428C-11.7065 46.8367 20.5603 74.1824 23.5612 110.921L33.4606 232.117C33.8306 236.646 37.8087 240.018 42.3459 239.647C46.8832 239.276 50.2614 235.304 49.8915 230.775L39.9921 109.579C36.9912 72.8403 64.3927 40.6208 101.195 37.6147C137.997 34.6087 170.264 61.9544 173.265 98.693L183.164 219.889C183.534 224.418 187.513 227.79 192.05 227.419C196.586 227.048 199.965 223.076 199.595 218.547L189.696 97.3509C186.695 60.6123 214.096 28.3928 250.898 25.3868C287.701 22.3807 319.968 49.7264 322.969 86.465L332.868 207.661C333.238 212.19 337.215 215.562 341.754 215.191C346.291 214.82 349.67 210.848 349.3 206.319L339.4 85.1228C336.399 48.3842 363.8 16.1648 400.602 13.1588L405.366 71.4787C400.829 71.8492 397.45 75.8219 397.82 80.351L407.72 201.547C410.72 238.285 383.319 270.505 346.518 273.511C309.714 276.517 277.448 249.171 274.447 212.433L264.547 91.2369C264.177 86.7078 260.2 83.336 255.662 83.7067C251.125 84.0773 247.746 88.0499 248.116 92.5791L258.015 213.775C261.016 250.513 233.615 282.733 196.813 285.739C160.011 288.745 127.745 261.399 124.744 224.661L114.845 103.465C114.475 98.9357 110.496 95.564 105.959 95.9346C101.421 96.3053 98.0434 100.278 98.4133 104.807L108.313 226.003C111.314 262.741 83.9118 294.961 47.1095 297.967C10.3072 300.973 -21.9595 273.627 -24.9603 236.889L-34.8597 115.693Z" fill="#EF4697"/>
</g>
<defs>
<clipPath id="clip0_1898_32161">
<rect x="0.931641" width="280" height="280" rx="8" fill="white"/>
</clipPath>
</defs>
</svg>
