<svg width="80" height="80" viewBox="0 0 80 80" fill="none" xmlns="http://www.w3.org/2000/svg">
<g id="urgent-bell">
<g id="&#8;urgent bell">
<path id="Rectangle 94" d="M21.019 36.962C21.019 26.893 29.1816 18.7305 39.2505 18.7305C49.3195 18.7305 57.482 26.893 57.482 36.962V62.0089H21.019V36.962Z" fill="#FF3333"/>
<path id="Rectangle 95" d="M17.6006 66.5527C17.6006 64.3436 19.3914 62.5527 21.6006 62.5527H56.9004C59.1095 62.5527 60.9004 64.3436 60.9004 66.5527V70.6674H17.6006V66.5527Z" fill="#2C2C2C"/>
<path id="Subtract" fill-rule="evenodd" clip-rule="evenodd" d="M39.2505 18.7344C29.1816 18.7344 21.019 26.8969 21.019 36.9659V62.0128H23.8677V36.9659C23.8677 27.3762 31.2716 19.5158 40.6748 18.7892C40.2048 18.7529 39.7298 18.7344 39.2505 18.7344Z" fill="#8F1D1D"/>
<path id="Vector 16" d="M40.6748 20.8965C45.2327 20.8965 54.3484 25.7653 54.9182 33.339" stroke="white" stroke-width="3" stroke-linecap="round"/>
<path id="Vector 17 (Stroke)" fill-rule="evenodd" clip-rule="evenodd" d="M28.364 5.47749C29.1815 5.02932 30.2269 5.29528 30.6988 6.07152L35.8264 14.5046C36.2984 15.2808 36.0183 16.2734 35.2008 16.7216C34.3833 17.1697 33.338 16.9038 32.866 16.1275L27.7384 7.69447C27.2664 6.91823 27.5465 5.92565 28.364 5.47749Z" fill="#FF7940"/>
<path id="Vector 17 (Stroke)_2" fill-rule="evenodd" clip-rule="evenodd" d="M44.1492 16.7217C44.9667 17.1699 46.012 16.9039 46.484 16.1277L51.6116 7.69464C52.0836 6.9184 51.8035 5.92582 50.986 5.47766C50.1685 5.02949 49.1232 5.29545 48.6512 6.0717L43.5236 14.5048C43.0516 15.281 43.3317 16.2736 44.1492 16.7217Z" fill="#FF7940"/>
<path id="Vector 17 (Stroke)_3" fill-rule="evenodd" clip-rule="evenodd" d="M57.0354 23.9245C57.4182 24.5541 58.266 24.7698 58.9291 24.4063L66.1326 20.4572C66.7957 20.0937 67.0229 19.2886 66.6401 18.659C66.2572 18.0294 65.4094 17.8137 64.7463 18.1772L57.5428 22.1263C56.8797 22.4898 56.6525 23.2949 57.0354 23.9245Z" fill="#FF7940"/>
<path id="Vector 17 (Stroke)_4" fill-rule="evenodd" clip-rule="evenodd" d="M12.0271 18.6595C12.4099 18.0299 13.2577 17.8142 13.9208 18.1777L21.1243 22.1268C21.7874 22.4903 22.0146 23.2953 21.6318 23.9249C21.2489 24.5545 20.4011 24.7703 19.738 24.4068L12.5345 20.4577C11.8714 20.0942 11.6442 19.2891 12.0271 18.6595Z" fill="#FF7940"/>
</g>
</g>
</svg>
