<svg width="86" height="88" viewBox="0 0 86 88" fill="none" xmlns="http://www.w3.org/2000/svg">
<g id="&#8;IMG">
<g id="Group 34">
<path id="Rectangle 100" d="M78.7034 52.6982C83.5865 46.9451 81.9167 38.1537 75.2645 34.5915C69.4975 31.5034 62.3191 33.6749 59.2309 39.4419L45.4526 65.1722L61.0341 73.5159L78.7034 52.6982Z" fill="#F9CE7A"/>
<path id="Rectangle 98" d="M25 32.4C25 21.1334 34.1334 12 45.4 12C56.6666 12 65.8 21.1334 65.8 32.4V64.2956C65.8 72.9689 58.7689 80 50.0956 80H40.7044C32.0311 80 25 72.9689 25 64.2956V32.4Z" fill="#F9CE7A"/>
</g>
<path id="Portal" fill-rule="evenodd" clip-rule="evenodd" d="M23 46C22.954 33.3131 12.6743 23.0426 0 23.0426C12.7025 23.0426 23 12.726 23 0C23.0458 12.6869 33.3257 22.9574 46 22.9574C33.2972 22.9574 23 33.274 23 46Z" fill="#F74747"/>
<g id="STOP">
<path id="Vector" d="M67.4866 76.0189C67.4866 78.6539 66.1946 79.5719 63.4066 79.5719H60.7716V81.8839H57.4736V70.2559H63.0666C65.8376 70.2559 67.4866 71.4969 67.4866 74.1319V76.0189ZM60.7716 76.8859H63.1176C64.0526 76.8859 64.5286 76.4779 64.5286 75.6789V74.2849C64.5286 73.4689 63.9846 72.9759 63.2196 72.9759H60.7716V76.8859Z" fill="#F74747"/>
<path id="Vector_2" d="M50.2536 79.418H51.1036V72.975H50.2536V79.418ZM45.2046 76.834V75.151C45.2046 71.496 46.9046 70 50.6956 70C54.4356 70.017 56.1356 71.53 56.1356 75.151V76.834C56.1356 80.489 54.2486 82.121 50.6956 82.138C47.0916 82.138 45.2046 80.506 45.2046 76.834Z" fill="#F74747"/>
<path id="Vector_3" d="M38.3741 81.8995V72.9575H35.3311V70.2715H44.8001V72.9575H41.7741V81.8995H38.3741Z" fill="#F74747"/>
<path id="Vector_4" d="M30.729 78.8905C31.222 78.8905 31.528 78.5845 31.528 78.1595C31.528 77.7005 31.188 77.4115 30.729 77.4115H28.995C26.394 77.4115 25 76.2385 25 73.9095C25 73.2635 25.136 72.6685 25.408 72.1245C25.952 71.0365 27.176 70.2715 29.131 70.2715H34.163V73.1615H29.097C28.604 73.1615 28.366 73.5015 28.366 73.8925C28.366 74.5725 28.723 74.7085 29.25 74.7085H30.967C31.868 74.7085 32.599 74.8785 33.16 75.2015C34.282 75.8815 34.741 76.9695 34.741 78.1255C34.741 80.2845 33.806 81.8995 31.137 81.8995H25.476V78.8905H30.729Z" fill="#F74747"/>
</g>
</g>
</svg>
