<svg width="44" height="44" viewBox="0 0 44 44" fill="none" xmlns="http://www.w3.org/2000/svg">
<g clip-path="url(#clip0_1094_22991)">
<g opacity="0.74">
<rect width="100" height="100" transform="translate(-37 -37)" fill="#2C2C2C"/>
</g>
<path d="M29.5 15.25H26.9012L25.6234 13.3338C25.555 13.2311 25.4623 13.147 25.3535 13.0888C25.2448 13.0306 25.1233 13.0001 25 13H19C18.8767 13.0001 18.7552 13.0306 18.6465 13.0888C18.5377 13.147 18.445 13.2311 18.3766 13.3338L17.0978 15.25H14.5C13.9033 15.25 13.331 15.4871 12.909 15.909C12.4871 16.331 12.25 16.9033 12.25 17.5V28C12.25 28.5967 12.4871 29.169 12.909 29.591C13.331 30.0129 13.9033 30.25 14.5 30.25H29.5C30.0967 30.25 30.669 30.0129 31.091 29.591C31.5129 29.169 31.75 28.5967 31.75 28V17.5C31.75 16.9033 31.5129 16.331 31.091 15.909C30.669 15.4871 30.0967 15.25 29.5 15.25ZM30.25 28C30.25 28.1989 30.171 28.3897 30.0303 28.5303C29.8897 28.671 29.6989 28.75 29.5 28.75H14.5C14.3011 28.75 14.1103 28.671 13.9697 28.5303C13.829 28.3897 13.75 28.1989 13.75 28V17.5C13.75 17.3011 13.829 17.1103 13.9697 16.9697C14.1103 16.829 14.3011 16.75 14.5 16.75H17.5C17.6235 16.7501 17.7451 16.7197 17.854 16.6614C17.963 16.6032 18.0558 16.519 18.1244 16.4163L19.4012 14.5H24.5978L25.8756 16.4163C25.9442 16.519 26.037 16.6032 26.146 16.6614C26.2549 16.7197 26.3765 16.7501 26.5 16.75H29.5C29.6989 16.75 29.8897 16.829 30.0303 16.9697C30.171 17.1103 30.25 17.3011 30.25 17.5V28ZM25.75 22.75C25.75 22.9489 25.671 23.1397 25.5303 23.2803C25.3897 23.421 25.1989 23.5 25 23.5H22.75V25.75C22.75 25.9489 22.671 26.1397 22.5303 26.2803C22.3897 26.421 22.1989 26.5 22 26.5C21.8011 26.5 21.6103 26.421 21.4697 26.2803C21.329 26.1397 21.25 25.9489 21.25 25.75V23.5H19C18.8011 23.5 18.6103 23.421 18.4697 23.2803C18.329 23.1397 18.25 22.9489 18.25 22.75C18.25 22.5511 18.329 22.3603 18.4697 22.2197C18.6103 22.079 18.8011 22 19 22H21.25V19.75C21.25 19.5511 21.329 19.3603 21.4697 19.2197C21.6103 19.079 21.8011 19 22 19C22.1989 19 22.3897 19.079 22.5303 19.2197C22.671 19.3603 22.75 19.5511 22.75 19.75V22H25C25.1989 22 25.3897 22.079 25.5303 22.2197C25.671 22.3603 25.75 22.5511 25.75 22.75Z" fill="white"/>
</g>
<defs>
<clipPath id="clip0_1094_22991">
<rect width="44" height="44" rx="22" fill="white"/>
</clipPath>
</defs>
</svg>
