<svg xmlns="http://www.w3.org/2000/svg" width="24" height="24" viewBox="0 0 24 24" fill="none">
  <g clip-path="url(#clip0_616_20523)">
    <g filter="url(#filter0_ddd_616_20523)">
      <path d="M20.5713 0.734863H3.42847C2.07594 0.734863 0.979492 1.83131 0.979492 3.18384V20.3267C0.979492 21.6792 2.07594 22.7757 3.42847 22.7757H20.5713C21.9239 22.7757 23.0203 21.6792 23.0203 20.3267V3.18384C23.0203 1.83131 21.9239 0.734863 20.5713 0.734863Z" fill="white"/>
      <path d="M0.979492 3.18384C0.979492 1.83131 2.07594 0.734863 3.42847 0.734863H20.5713C21.9239 0.734863 23.0203 1.83131 23.0203 3.18384V6.24507H0.979492V3.18384Z" fill="#1BF1A4"/>
      <path d="M10.8027 17.7402L9.05859 15.9961L15.5035 9.55114L17.2477 11.2953L10.8027 17.7402Z" fill="#16D892"/>
      <path d="M6.85693 13.8952L8.58862 12.1636L12.4849 16.0599L10.7532 17.7916L6.85693 13.8952Z" fill="#133199"/>
    </g>
  </g>
  <defs>
    <filter id="filter0_ddd_616_20523" x="-1.02051" y="-0.265137" width="26.041" height="26.041" filterUnits="userSpaceOnUse" color-interpolation-filters="sRGB">
      <feFlood flood-opacity="0" result="BackgroundImageFix"/>
      <feColorMatrix in="SourceAlpha" type="matrix" values="0 0 0 0 0 0 0 0 0 0 0 0 0 0 0 0 0 0 127 0" result="hardAlpha"/>
      <feOffset/>
      <feGaussianBlur stdDeviation="0.5"/>
      <feComposite in2="hardAlpha" operator="out"/>
      <feColorMatrix type="matrix" values="0 0 0 0 0 0 0 0 0 0 0 0 0 0 0 0 0 0 0.08 0"/>
      <feBlend mode="normal" in2="BackgroundImageFix" result="effect1_dropShadow_616_20523"/>
      <feColorMatrix in="SourceAlpha" type="matrix" values="0 0 0 0 0 0 0 0 0 0 0 0 0 0 0 0 0 0 127 0" result="hardAlpha"/>
      <feOffset/>
      <feGaussianBlur stdDeviation="0.5"/>
      <feComposite in2="hardAlpha" operator="out"/>
      <feColorMatrix type="matrix" values="0 0 0 0 0 0 0 0 0 0 0 0 0 0 0 0 0 0 0.08 0"/>
      <feBlend mode="normal" in2="effect1_dropShadow_616_20523" result="effect2_dropShadow_616_20523"/>
      <feColorMatrix in="SourceAlpha" type="matrix" values="0 0 0 0 0 0 0 0 0 0 0 0 0 0 0 0 0 0 127 0" result="hardAlpha"/>
      <feOffset dy="1"/>
      <feGaussianBlur stdDeviation="1"/>
      <feComposite in2="hardAlpha" operator="out"/>
      <feColorMatrix type="matrix" values="0 0 0 0 0 0 0 0 0 0 0 0 0 0 0 0 0 0 0.12 0"/>
      <feBlend mode="normal" in2="effect2_dropShadow_616_20523" result="effect3_dropShadow_616_20523"/>
      <feBlend mode="normal" in="SourceGraphic" in2="effect3_dropShadow_616_20523" result="shape"/>
    </filter>
    <clipPath id="clip0_616_20523">
      <rect width="24" height="24" fill="white"/>
    </clipPath>
  </defs>
</svg>