<svg xmlns="http://www.w3.org/2000/svg" width="44" height="44" viewBox="0 0 44 44" fill="none">
  <g clip-path="url(#clip0_536_2825)">
    <path d="M6.9668 27.2499C6.9668 19.0485 13.6154 12.3999 21.8168 12.3999C30.0182 12.3999 36.6668 19.0485 36.6668 27.2499V53.0999H6.9668V27.2499Z" fill="#D9D9D9"/>
    <path fill-rule="evenodd" clip-rule="evenodd" d="M16.5001 25.0499C17.4114 25.0499 18.1501 25.7886 18.1501 26.6999V29.9999C18.1501 30.9112 17.4114 31.6499 16.5001 31.6499C15.5889 31.6499 14.8501 30.9112 14.8501 29.9999V26.6999C14.8501 25.7886 15.5889 25.0499 16.5001 25.0499Z" fill="#BBBBBB"/>
    <path fill-rule="evenodd" clip-rule="evenodd" d="M22.3668 25.0499C23.2781 25.0499 24.0168 25.7886 24.0168 26.6999V29.9999C24.0168 30.9112 23.2781 31.6499 22.3668 31.6499C21.4555 31.6499 20.7168 30.9112 20.7168 29.9999V26.6999C20.7168 25.7886 21.4555 25.0499 22.3668 25.0499Z" fill="#BBBBBB"/>
  </g>
  <defs>
    <clipPath id="clip0_536_2825">
      <rect width="44" height="44" rx="22" fill="white"/>
    </clipPath>
  </defs>
</svg>