<svg xmlns="http://www.w3.org/2000/svg" width="50" height="52" viewBox="0 0 50 52" fill="none">
  <path d="M0 24.8C0 11.1033 11.1929 0 25 0C38.8071 0 50 11.1033 50 24.8V62H0V24.8Z" fill="#DDDDDD"/>
  <path d="M46.25 62H50V24.8C50 11.1033 38.8071 0 25 0C24.3693 0 23.744 0.0231703 23.125 0.0686997C36.0564 1.01984 46.25 11.729 46.25 24.8V62Z" fill="#696969"/>
  <path d="M14.3603 20.7419C14.7623 19.2535 16.3045 18.3702 17.8049 18.769C19.3052 19.1678 20.1956 20.6977 19.7936 22.1861L18.6613 26.3782C18.2592 27.8666 16.717 28.7498 15.2167 28.351C13.7163 27.9522 12.8259 26.4223 13.2279 24.934L14.3603 20.7419Z" fill="#BBBBBB"/>
  <path d="M23.2279 22.186C22.8259 20.6977 23.7163 19.1678 25.2167 18.769C26.717 18.3702 28.2592 19.2535 28.6613 20.7418L29.7936 24.934C30.1956 26.4223 29.3052 27.9522 27.8049 28.351C26.3045 28.7498 24.7623 27.8665 24.3603 26.3782L23.2279 22.186Z" fill="#BBBBBB"/>
  <path d="M23.323 33.3323C23.4278 33.7475 23.7664 34.1 24.1978 34.1C24.6293 34.1 24.986 33.7504 24.915 33.3282C24.5742 31.2995 22.9137 29.76 20.9166 29.76C18.9195 29.76 17.259 31.2995 16.9181 33.3282C16.8472 33.7504 17.2039 34.1 17.6353 34.1C18.0668 34.1 18.4054 33.7475 18.5102 33.3323C18.8198 32.1062 19.8516 31.31 20.9166 31.31C21.9815 31.31 23.0134 32.1062 23.323 33.3323Z" fill="#696969"/>
</svg>