<svg width="20" height="20" viewBox="0 0 20 20" fill="none" xmlns="http://www.w3.org/2000/svg">
<g id="Icon/google-logo">
<path id="Vector" d="M18.8 10.2083C18.8 9.55831 18.7417 8.93331 18.6333 8.33331H10V11.8791H14.9333C14.7208 13.025 14.075 13.9958 13.1042 14.6458V16.9458H16.0667C17.8 15.35 18.8 13 18.8 10.2083Z" fill="#4285F4"/>
<path id="Vector_2" d="M9.99977 19.1666C12.4748 19.1666 14.5498 18.3458 16.0664 16.9458L13.1039 14.6458C12.2831 15.1958 11.2331 15.5208 9.99977 15.5208C7.61227 15.5208 5.59144 13.9083 4.87061 11.7416H1.80811V14.1166C3.31644 17.1125 6.41644 19.1666 9.99977 19.1666Z" fill="#34A853"/>
<path id="Vector_3" d="M4.871 11.7417C4.68766 11.1917 4.5835 10.6042 4.5835 10C4.5835 9.39586 4.68766 8.80836 4.871 8.25836V5.88336H1.8085C1.16683 7.16074 0.832931 8.57054 0.833497 10C0.833497 11.4792 1.18766 12.8792 1.8085 14.1167L4.871 11.7417Z" fill="#FBBC05"/>
<path id="Vector_4" d="M9.99977 4.47915C11.3456 4.47915 12.5539 4.94165 13.5039 5.84998L16.1331 3.22081C14.5456 1.74165 12.4706 0.833313 9.99977 0.833313C6.41644 0.833313 3.31644 2.88748 1.80811 5.88331L4.87061 8.25831C5.59144 6.09165 7.61227 4.47915 9.99977 4.47915Z" fill="#EA4335"/>
</g>
</svg>
