<svg xmlns="http://www.w3.org/2000/svg" width="4" height="14" viewBox="0 0 4 14" fill="none">
  <path d="M3.73358 1.4C3.73358 2.17319 3.10679 2.79999 2.33359 2.79999C1.56039 2.79999 0.933594 2.17319 0.933594 1.4C0.933594 0.626799 1.56039 0 2.33359 0C3.10679 0 3.73358 0.626799 3.73358 1.4Z" fill="#8c8c8c"/>
  <path d="M3.73358 6.99998C3.73358 7.77317 3.10679 8.39997 2.33359 8.39997C1.56039 8.39997 0.933594 7.77317 0.933594 6.99998C0.933594 6.22678 1.56039 5.59998 2.33359 5.59998C3.10679 5.59998 3.73358 6.22678 3.73358 6.99998Z" fill="#8c8c8c"/>
  <path d="M2.33359 14C3.10679 14 3.73358 13.3732 3.73358 12.6C3.73358 11.8268 3.10679 11.2 2.33359 11.2C1.56039 11.2 0.933594 11.8268 0.933594 12.6C0.933594 13.3732 1.56039 14 2.33359 14Z" fill="#8c8c8c"/>
</svg>