<svg width="100" height="100" viewBox="0 0 100 100" fill="none" xmlns="http://www.w3.org/2000/svg">
<g id="unsubscribe_FILL1_wght300_GRAD0_opsz24 1">
<path id="Vector" d="M50.0002 45.8332L21.0819 27.3316C20.2219 26.7814 19.3445 26.7333 18.4497 27.1873C17.555 27.6413 17.0675 28.3625 16.9874 29.3507C16.9073 29.8689 16.966 30.3683 17.1637 30.8491C17.3613 31.3298 17.6978 31.7171 18.1732 32.0109L47.973 51.0495C48.6173 51.4394 49.2939 51.6344 50.0027 51.6344C50.7115 51.6344 51.3864 51.4394 52.0274 51.0495L81.8272 32.0109C82.3026 31.7171 82.6458 31.3298 82.8568 30.8491C83.0678 30.3683 83.1198 29.8689 83.013 29.3507C82.9329 28.3625 82.4455 27.648 81.5508 27.2074C80.656 26.7667 79.7786 26.8215 78.9186 27.3717L50.0002 45.8332ZM79.1669 93.7497C73.964 93.7497 69.5382 91.9255 65.8897 88.2771C62.2412 84.6285 60.417 80.2028 60.417 74.9999C60.417 69.797 62.2412 65.3713 65.8897 61.7227C69.5382 58.0742 73.964 56.25 79.1669 56.25C84.3698 56.25 88.7955 58.0742 92.4441 61.7227C96.0926 65.3713 97.9168 69.797 97.9168 74.9999C97.9168 80.2028 96.0926 84.6285 92.4441 88.2771C88.7955 91.9256 84.3698 93.7498 79.1669 93.7498V93.7497ZM69.8721 76.8428H88.471C88.9669 76.8428 89.3965 76.6585 89.7597 76.2899C90.123 75.9214 90.3046 75.4914 90.3046 74.9999C90.3046 74.5084 90.1203 74.0784 89.7518 73.7099C89.3832 73.3413 88.9531 73.157 88.4617 73.157H69.8628C69.3669 73.157 68.9373 73.3413 68.5741 73.7099C68.2108 74.0784 68.0292 74.5084 68.0292 74.9999C68.0292 75.4914 68.2135 75.9214 68.582 76.2899C68.9506 76.6585 69.3806 76.8428 69.8721 76.8428ZM17.9491 81.2498C15.8778 81.2498 14.1046 80.5123 12.6296 79.0372C11.1545 77.5622 10.417 75.789 10.417 73.7177V26.2821C10.417 24.2108 11.1545 22.4376 12.6296 20.9626C14.1046 19.4875 15.8778 18.75 17.9491 18.75H82.0514C84.1227 18.75 85.8959 19.4875 87.3708 20.9626C88.8459 22.4376 89.5835 24.2108 89.5835 26.2821V50.1122C87.9328 49.3804 86.2395 48.8315 84.5033 48.4656C82.7672 48.0997 80.9884 47.9167 79.1669 47.9167C71.6223 47.9167 65.2223 50.5444 59.9669 55.7999C54.7114 61.0553 52.0837 67.4553 52.0837 74.9999C52.0837 76.0416 52.1478 77.0832 52.2761 78.1248C52.4043 79.1665 52.6232 80.2081 52.933 81.2498H17.9491Z" fill="#D9D9D9"/>
</g>
</svg>
