<svg xmlns="http://www.w3.org/2000/svg" width="20" height="20" viewBox="0 0 20 20" fill="none">
  <path d="M10 6.57145C9.5505 6.57145 9.11109 6.69713 8.73734 6.93259C8.36359 7.16806 8.07229 7.50273 7.90027 7.89429C7.72826 8.28585 7.68325 8.71671 7.77094 9.13239C7.85864 9.54807 8.07509 9.92989 8.39294 10.2296C8.71079 10.5293 9.11575 10.7334 9.55661 10.816C9.99748 10.8987 10.4544 10.8563 10.8697 10.6941C11.285 10.5319 11.64 10.2572 11.8897 9.90485C12.1394 9.55246 12.2727 9.13815 12.2727 8.71433C12.2727 8.14601 12.0333 7.60096 11.6071 7.19909C11.1808 6.79722 10.6028 6.57145 10 6.57145ZM10 10.0001C9.7303 10.0001 9.46665 9.92465 9.2424 9.78338C9.01816 9.6421 8.84337 9.4413 8.74016 9.20636C8.63695 8.97142 8.60995 8.71291 8.66257 8.4635C8.71518 8.21409 8.84506 7.985 9.03576 7.80519C9.22647 7.62537 9.46945 7.50292 9.73397 7.45331C9.99849 7.4037 10.2727 7.42916 10.5218 7.52648C10.771 7.62379 10.984 7.78858 11.1338 8.00002C11.2837 8.21146 11.3636 8.46004 11.3636 8.71433C11.3636 9.05533 11.22 9.38236 10.9642 9.62348C10.7085 9.8646 10.3617 10.0001 10 10.0001ZM10 4C8.67438 4.00142 7.40348 4.49856 6.46613 5.38236C5.52877 6.26616 5.0015 7.46445 5 8.71433C5 10.3965 5.82443 12.1794 7.38636 13.8706C8.08819 14.6349 8.8781 15.323 9.74148 15.9224C9.8179 15.9729 9.90896 16 10.0023 16C10.0956 16 10.1866 15.9729 10.2631 15.9224C11.1249 15.3228 11.9132 14.6346 12.6136 13.8706C14.1733 12.1794 15 10.3965 15 8.71433C14.9985 7.46445 14.4712 6.26616 13.5339 5.38236C12.5965 4.49856 11.3256 4.00142 10 4ZM10 15.0358C9.0608 14.3394 5.90909 11.7813 5.90909 8.71433C5.90909 7.69134 6.3401 6.71026 7.10729 5.98689C7.87448 5.26353 8.91502 4.85715 10 4.85715C11.085 4.85715 12.1255 5.26353 12.8927 5.98689C13.6599 6.71026 14.0909 7.69134 14.0909 8.71433C14.0909 11.7803 10.9392 14.3394 10 15.0358Z" fill="black"/>
</svg>