<svg xmlns="http://www.w3.org/2000/svg" width="20" height="24" viewBox="0 0 20 24" fill="none">
  <path d="M9.99987 0.799805C6.21279 0.799805 3.14275 4.08841 3.14275 8.1451V13.1399H2.3199C1.25951 13.1399 0.399902 14.0607 0.399902 15.1965C0.399902 16.3324 1.25951 17.2532 2.3199 17.2532H17.6798C18.7402 17.2532 19.5998 16.3324 19.5998 15.1965C19.5998 14.0607 18.7402 13.1399 17.6798 13.1399H16.857V8.14509C16.857 4.0884 13.787 0.799805 9.99987 0.799805Z" fill="#FFB723"/>
  <path d="M6.16989 18.058C6.16436 18.058 6.15988 18.0626 6.15988 18.0683V19.2577C6.15988 21.4348 7.87911 23.1997 9.99988 23.1997C12.1207 23.1997 13.8399 21.4348 13.8399 19.2577V18.0683C13.8399 18.0626 13.8354 18.058 13.8299 18.058H6.16989Z" fill="#FFD47B"/>
</svg>