<svg xmlns="http://www.w3.org/2000/svg" width="24" height="24" viewBox="0 0 24 24" fill="none">
  <g clip-path="url(#clip0_616_20548)">
    <path d="M6.73299 6.30573C7.80787 3.34289 10.8867 1.88913 13.6098 3.05867C16.3328 4.2282 17.6689 7.57818 16.594 10.541L13.3503 19.4822L3.48926 15.2469L6.73299 6.30573Z" fill="#FFB723"/>
    <path d="M1.83859 12.8156C2.13716 11.9926 2.9924 11.5887 3.74881 11.9136L15.2533 16.8548C16.0098 17.1796 16.3809 18.1102 16.0823 18.9332C15.7837 19.7562 14.9285 20.16 14.1721 19.8351L2.66755 14.894C1.91115 14.5691 1.54001 13.6386 1.83859 12.8156Z" fill="#FECB61"/>
    <path d="M5.46428 16.7842C4.86712 18.4302 5.60941 20.2913 7.12221 20.941C8.63501 21.5908 10.3455 20.7831 10.9426 19.1371L5.46428 16.7842Z" fill="#FFB723"/>
    <path opacity="0.7" fill-rule="evenodd" clip-rule="evenodd" d="M16.7851 17.6202C16.6702 17.1428 16.355 16.7295 15.9009 16.5345L15.0791 16.1815L17.2416 10.2207C17.7932 8.70033 17.7099 7.07799 17.1301 5.70068C18.4936 5.91477 19.7164 6.89637 20.2585 8.39053L21.8776 12.8537L22.4929 12.5894C23.0593 12.3462 23.6996 12.6485 23.9232 13.2647C24.1467 13.881 23.8688 14.5777 23.3025 14.821L22.6872 15.0852L16.7851 17.6202ZM19.967 19.3487C21.0997 18.8622 21.6555 17.4687 21.2083 16.2362L17.1064 17.998C17.5536 19.2305 18.8343 19.8352 19.967 19.3487Z" fill="#FFB723"/>
  </g>
  <defs>
    <clipPath id="clip0_616_20548">
      <rect width="24" height="24" fill="white"/>
    </clipPath>
  </defs>
</svg>