<svg xmlns="http://www.w3.org/2000/svg" width="20" height="20" viewBox="0 0 20 20" fill="none">
  <path d="M7.83904 6.91096C7.58276 6.65468 7.16724 6.65468 6.91096 6.91096C6.65468 7.16724 6.65468 7.58276 6.91096 7.83904L9.07192 10L6.91096 12.161C6.65468 12.4172 6.65468 12.8328 6.91096 13.089C7.16724 13.3453 7.58276 13.3453 7.83904 13.089L10 10.9281L12.161 13.089C12.4172 13.3453 12.8328 13.3453 13.089 13.089C13.3453 12.8328 13.3453 12.4172 13.089 12.161L10.9281 10L13.089 7.83904C13.3453 7.58276 13.3453 7.16724 13.089 6.91096C12.8328 6.65468 12.4172 6.65468 12.161 6.91096L10 9.07192L7.83904 6.91096Z" fill="#8C8C8C"/>
  <path fill-rule="evenodd" clip-rule="evenodd" d="M17 10C17 13.866 13.866 17 10 17C6.13401 17 3 13.866 3 10C3 6.13401 6.13401 3 10 3C13.866 3 17 6.13401 17 10ZM16.125 10C16.125 13.3827 13.3827 16.125 10 16.125C6.61726 16.125 3.875 13.3827 3.875 10C3.875 6.61726 6.61726 3.875 10 3.875C13.3827 3.875 16.125 6.61726 16.125 10Z" fill="#8C8C8C"/>
</svg>