<svg xmlns="http://www.w3.org/2000/svg" width="20" height="20" viewBox="0 0 20 20" fill="none">
  <path fill-rule="evenodd" clip-rule="evenodd" d="M8.49579 3.75C8.49579 3.33579 8.16 3 7.74579 3C7.33157 3 6.99579 3.33579 6.99579 3.75V4.71552H5C3.89543 4.71552 3 5.61095 3 6.71552V14.3017C3 15.4063 3.89543 16.3017 5 16.3017H10.6881C10.6259 15.9898 10.5932 15.6669 10.5932 15.3362C10.5932 15.1556 10.603 14.9772 10.622 14.8017H5C4.72386 14.8017 4.5 14.5779 4.5 14.3017V6.71552C4.5 6.43937 4.72386 6.21552 5 6.21552H6.99579V6.64655C6.99579 7.06077 7.33157 7.39655 7.74579 7.39655C8.16 7.39655 8.49579 7.06077 8.49579 6.64655V6.21552H10.7924V6.64655C10.7924 7.06077 11.1281 7.39655 11.5424 7.39655C11.9566 7.39655 12.2924 7.06077 12.2924 6.64655V6.21552H14.2881C14.5643 6.21552 14.7881 6.43937 14.7881 6.71552V10.5408C14.9688 10.5195 15.1527 10.5086 15.339 10.5086C15.664 10.5086 15.9814 10.5419 16.2881 10.6052V6.71552C16.2881 5.61095 15.3927 4.71552 14.2881 4.71552H12.2924V3.75C12.2924 3.33579 11.9566 3 11.5424 3C11.1281 3 10.7924 3.33579 10.7924 3.75V4.71552H8.49579V3.75ZM11.7415 14.3707C11.7415 13.9565 12.0773 13.6207 12.4915 13.6207H13.6398V12.4397C13.6398 12.0254 13.9756 11.6897 14.3898 11.6897C14.804 11.6897 15.1398 12.0254 15.1398 12.4397V13.6207H16.2881C16.7023 13.6207 17.0381 13.9565 17.0381 14.3707C17.0381 14.7849 16.7023 15.1207 16.2881 15.1207H15.1398V16.3017C15.1398 16.7159 14.804 17.0517 14.3898 17.0517C13.9756 17.0517 13.6398 16.7159 13.6398 16.3017V15.1207H12.4915C12.0773 15.1207 11.7415 14.7849 11.7415 14.3707Z" fill="white"/>
</svg>