<svg width="132" height="44" viewBox="0 0 132 44" fill="none" xmlns="http://www.w3.org/2000/svg">
<path d="M41.2101 44H30.2523V0H41.2101V44ZM25.5894 25.4646H11.251V33.6063H26.1723V42.2677H0.293213V0.577428H25.5894V9.29659H11.251V16.8032H25.5894V25.4646Z" fill="black"/>
<path d="M84.535 43.8845H73.6355V0H84.535V43.8845ZM57.7234 9.12336H43.793V0.461945H68.6812V9.12336C68.6812 22.4619 64.4263 32.7402 57.0822 38.1102C53.4102 40.8242 49.1553 42.1522 44.3758 42.1522L43.2101 33.4908C47.4067 33.4908 52.2445 30.7192 55.1005 24.252H44.3758V15.5906H57.3154C57.6068 13.7428 57.7234 11.6063 57.7234 9.12336Z" fill="#3360FF"/>
<path d="M131.707 16.6877V25.3491H127.335V43.8845H116.378V0H127.335V16.6877H131.707ZM111.423 25.3491H97.4928V33.4908H112.589V42.1522H86.535V0.461945H111.423V9.12336H97.4928V16.6877H111.423V25.3491Z" fill="black"/>
</svg>
